<svg xmlns="http://www.w3.org/2000/svg" xmlns:xlink="http://www.w3.org/1999/xlink" version="1.1" width="256" height="256" viewBox="0 0 256 256" xml:space="preserve">

<defs>
</defs>
<g style="stroke: none; stroke-width: 0; stroke-dasharray: none; stroke-linecap: butt; stroke-linejoin: miter; stroke-miterlimit: 10; fill: none; fill-rule: nonzero; opacity: 1;" transform="translate(1.4065934065934016 1.4065934065934016) scale(2.81 2.81)" >
	<path d="M 45 79.943 c -0.552 0 -1 -0.447 -1 -1 V 58.866 c 0 -8.283 -6.739 -15.022 -15.022 -15.022 H 17.022 C 8.739 43.844 2 50.583 2 58.866 v 20.077 c 0 0.553 -0.448 1 -1 1 s -1 -0.447 -1 -1 V 58.866 c 0 -9.386 7.636 -17.022 17.022 -17.022 h 11.956 C 38.364 41.844 46 49.48 46 58.866 v 20.077 C 46 79.496 45.552 79.943 45 79.943 z" style="stroke: none; stroke-width: 1; stroke-dasharray: none; stroke-linecap: butt; stroke-linejoin: miter; stroke-miterlimit: 10; fill: rgb(0,0,0); fill-rule: nonzero; opacity: 1;" transform=" matrix(1 0 0 1 0 0) " stroke-linecap="round" />
	<path d="M 23 43.844 c -7.276 0 -13.196 -5.919 -13.196 -13.196 v -7.396 c 0 -7.276 5.919 -13.196 13.196 -13.196 s 13.196 5.919 13.196 13.196 v 7.396 C 36.196 37.925 30.276 43.844 23 43.844 z M 23 12.057 c -6.173 0 -11.196 5.022 -11.196 11.196 v 7.396 c 0 6.173 5.022 11.196 11.196 11.196 s 11.196 -5.022 11.196 -11.196 v -7.396 C 34.196 17.079 29.173 12.057 23 12.057 z" style="stroke: none; stroke-width: 1; stroke-dasharray: none; stroke-linecap: butt; stroke-linejoin: miter; stroke-miterlimit: 10; fill: rgb(0,0,0); fill-rule: nonzero; opacity: 1;" transform=" matrix(1 0 0 1 0 0) " stroke-linecap="round" />
	<path d="M 89 79.943 c -0.553 0 -1 -0.447 -1 -1 V 58.866 c 0 -8.283 -6.738 -15.022 -15.021 -15.022 H 61.021 C 52.738 43.844 46 50.583 46 58.866 v 20.077 c 0 0.553 -0.448 1 -1 1 s -1 -0.447 -1 -1 V 58.866 c 0 -9.386 7.636 -17.022 17.021 -17.022 h 11.957 C 82.364 41.844 90 49.48 90 58.866 v 20.077 C 90 79.496 89.553 79.943 89 79.943 z" style="stroke: none; stroke-width: 1; stroke-dasharray: none; stroke-linecap: butt; stroke-linejoin: miter; stroke-miterlimit: 10; fill: rgb(0,0,0); fill-rule: nonzero; opacity: 1;" transform=" matrix(1 0 0 1 0 0) " stroke-linecap="round" />
	<path d="M 67 43.844 c -7.276 0 -13.195 -5.919 -13.195 -13.196 v -7.396 c 0 -7.276 5.919 -13.196 13.195 -13.196 s 13.195 5.919 13.195 13.196 v 7.396 C 80.195 37.925 74.276 43.844 67 43.844 z M 67 12.057 c -6.173 0 -11.195 5.022 -11.195 11.196 v 7.396 c 0 6.173 5.022 11.196 11.195 11.196 s 11.195 -5.022 11.195 -11.196 v -7.396 C 78.195 17.079 73.173 12.057 67 12.057 z" style="stroke: none; stroke-width: 1; stroke-dasharray: none; stroke-linecap: butt; stroke-linejoin: miter; stroke-miterlimit: 10; fill: rgb(0,0,0); fill-rule: nonzero; opacity: 1;" transform=" matrix(1 0 0 1 0 0) " stroke-linecap="round" />
</g>
</svg>
